<?xml version="1.0" encoding="UTF-8"?>
<svg width="700pt" height="700pt" version="1.1" viewBox="0 0 700 700" xmlns="http://www.w3.org/2000/svg">
 <g>
  <path d="m490 315c-48.301 0-87.5 39.199-87.5 87.5s39.199 87.5 87.5 87.5 87.5-39.199 87.5-87.5-39.199-87.5-87.5-87.5zm43.75 105h-26.25v26.25c0 9.6602-7.8242 17.5-17.5 17.5s-17.5-7.8398-17.5-17.5v-26.25h-26.25c-9.6758 0-17.5-7.8398-17.5-17.5s7.8242-17.5 17.5-17.5h26.25v-26.25c0-9.6602 7.8242-17.5 17.5-17.5s17.5 7.8398 17.5 17.5v26.25h26.25c9.6758 0 17.5 7.8398 17.5 17.5s-7.8242 17.5-17.5 17.5z"/>
  <path d="m437.57 157.5c0 57.988-47.012 105-105 105-57.988 0-105-47.012-105-105s47.012-105 105-105c57.988 0 105 47.012 105 105"/>
  <path d="m485.61 297.75c-14.98-20.859-33.703-38.852-55.176-53.008-24.027 26.949-58.922 44.031-97.859 44.031-38.973 0-73.867-17.098-97.914-44.066-56.984 37.52-94.66 101.95-94.66 175.3 0 28.996 23.504 52.5 52.5 52.5h219.41c-16.676-18.586-26.914-43.066-26.914-70 0-56.508 44.711-102.45 100.61-104.75z"/>
 </g>
</svg>
